<svg xmlns="http://www.w3.org/2000/svg" viewBox="0 0 800 600" preserveAspectRatio="xMidYMid slice">
  <defs>
    <linearGradient id="bg" x1="0" y1="0" x2="0" y2="1">
      <stop offset="0" stop-color="#11604d"/>
      <stop offset="1" stop-color="#0b4537"/>
    </linearGradient>
    <linearGradient id="thobe" x1="0" y1="0" x2="0" y2="1">
      <stop offset="0" stop-color="#ffffff"/>
      <stop offset="1" stop-color="#e9e7e0"/>
    </linearGradient>
    <linearGradient id="ghutra" x1="0" y1="0" x2="0" y2="1">
      <stop offset="0" stop-color="#ffffff"/>
      <stop offset="1" stop-color="#efede7"/>
    </linearGradient>
    <radialGradient id="glow" cx=".5" cy=".42" r=".62">
      <stop offset="0" stop-color="#ffffff" stop-opacity=".10"/>
      <stop offset="1" stop-color="#ffffff" stop-opacity="0"/>
    </radialGradient>
  </defs>

  <rect width="800" height="600" fill="url(#bg)"/>
  <circle cx="400" cy="300" r="440" fill="url(#glow)"/>
  <circle cx="95" cy="80" r="150" fill="#ffffff" opacity=".04"/>
  <circle cx="722" cy="110" r="64" fill="none" stroke="#e9a03b" stroke-width="2.5" opacity=".35"/>
  <circle cx="60" cy="470" r="10" fill="#e9a03b" opacity=".3"/>

  <path d="M0 500 C120 452 220 492 340 462 C470 430 570 486 690 456 C740 444 780 452 800 446 L800 600 L0 600 Z" fill="#0a3f33" opacity=".7"/>
  <path d="M0 540 C140 500 260 540 400 508 C540 476 660 528 800 496 L800 600 L0 600 Z" fill="#083629" opacity=".85"/>

  <g transform="translate(400 322)">
    <circle cx="0" cy="-30" r="188" fill="#ffffff" opacity=".05"/>
    <circle cx="0" cy="-30" r="188" fill="none" stroke="#ffffff" stroke-width="2" opacity=".10"/>
    <ellipse cx="0" cy="246" rx="205" ry="22" fill="#04241d" opacity=".45"/>

    <path d="M-150 246 C-150 128 -92 74 0 74 C92 74 150 128 150 246 Z" fill="url(#thobe)"/>
    <path d="M-32 78 L0 122 L32 78 C20 70 -20 70 -32 78 Z" fill="#f1efe9"/>
    <path d="M-7 118 L7 118 L7 246 L-7 246 Z" fill="#e3e1d9"/>
    <circle cx="0" cy="142" r="3" fill="#cfccc2"/>
    <circle cx="0" cy="168" r="3" fill="#cfccc2"/>
    <circle cx="0" cy="194" r="3" fill="#cfccc2"/>

    <path d="M-26 34 C-26 56 -12 66 0 66 C12 66 26 56 26 34 L26 8 L-26 8 Z" fill="#dca97c"/>
    <ellipse cx="0" cy="16" rx="24" ry="10" fill="#c08f60" opacity=".35"/>

    <rect x="-80" y="-150" width="160" height="212" rx="58" fill="url(#ghutra)"/>

    <ellipse cx="0" cy="-48" rx="53" ry="60" fill="#e6b489"/>

    <path d="M-56 -60 C-56 -112 -32 -131 0 -131 C32 -131 56 -112 56 -60 L44 -60 C44 -98 26 -113 0 -113 C-26 -113 -44 -98 -44 -60 Z" fill="#f8f6f1"/>

    <path d="M-50 -80 C-33 -104 33 -104 50 -80" stroke="#23211d" stroke-width="12" fill="none" stroke-linecap="round"/>
    <path d="M-45 -70 C-30 -91 30 -91 45 -70" stroke="#39352e" stroke-width="8" fill="none" stroke-linecap="round"/>

    <ellipse cx="-20" cy="-55" rx="5.6" ry="6.6" fill="#2b2420"/>
    <ellipse cx="20" cy="-55" rx="5.6" ry="6.6" fill="#2b2420"/>
    <circle cx="-18" cy="-57.5" r="1.7" fill="#ffffff"/>
    <circle cx="22" cy="-57.5" r="1.7" fill="#ffffff"/>
    <path d="M-30 -69 C-24 -73 -14 -73 -10 -70" stroke="#54402c" stroke-width="4.2" fill="none" stroke-linecap="round"/>
    <path d="M30 -69 C24 -73 14 -73 10 -70" stroke="#54402c" stroke-width="4.2" fill="none" stroke-linecap="round"/>
    <path d="M0 -50 C2.5 -42 2.5 -37 -1.5 -34" stroke="#c99668" stroke-width="3.6" fill="none" stroke-linecap="round"/>
    <path d="M-15 -23 C-7 -15 7 -15 15 -23" stroke="#a06a42" stroke-width="4.4" fill="none" stroke-linecap="round"/>
    <ellipse cx="-32" cy="-34" rx="7" ry="4.5" fill="#d89a6b" opacity=".35"/>
    <ellipse cx="32" cy="-34" rx="7" ry="4.5" fill="#d89a6b" opacity=".35"/>

    <g transform="translate(112 134)">
      <circle r="38" fill="#e9a03b"/>
      <circle r="38" fill="none" stroke="#ffffff" stroke-width="4.5" opacity=".4"/>
      <path d="M-12 -4 L-3.5 7 L14 -12" stroke="#ffffff" stroke-width="6.5" fill="none" stroke-linecap="round" stroke-linejoin="round"/>
    </g>
  </g>
</svg>
