<svg xmlns="http://www.w3.org/2000/svg" viewBox="0 0 800 600" preserveAspectRatio="xMidYMid slice">
  <defs>
    <linearGradient id="bg" x1="0" y1="0" x2="0" y2="1">
      <stop offset="0" stop-color="#0f5c4a"/>
      <stop offset="1" stop-color="#1c4a3d"/>
    </linearGradient>
    <linearGradient id="thobe" x1="0" y1="0" x2="0" y2="1">
      <stop offset="0" stop-color="#ffffff"/>
      <stop offset="1" stop-color="#e6e4dc"/>
    </linearGradient>
    <linearGradient id="ghutra" x1="0" y1="0" x2="0" y2="1">
      <stop offset="0" stop-color="#ffffff"/>
      <stop offset="1" stop-color="#eceae3"/>
    </linearGradient>
  </defs>

  <rect width="800" height="600" fill="url(#bg)"/>

  <circle cx="90" cy="70" r="160" fill="#ffffff" opacity=".04"/>
  <circle cx="730" cy="520" r="200" fill="#ffffff" opacity=".05"/>

  <path d="M0 480 L130 395 L250 465 L370 400 L500 475 L630 405 L730 460 L800 420 L800 600 L0 600 Z" fill="#0b473a" opacity=".8"/>
  <path d="M0 525 L160 460 L320 528 L480 462 L640 530 L800 470 L800 600 L0 600 Z" fill="#093c31" opacity=".9"/>

  <g transform="translate(400 320)">
    <ellipse cx="0" cy="252" rx="215" ry="26" fill="#062d25" opacity=".55"/>

    <path d="M-155 252 C-155 128 -98 66 0 66 C98 66 155 128 155 252 Z" fill="url(#thobe)"/>
    <path d="M0 68 L-28 104 L0 160 L28 104 Z" fill="#d8d5cc"/>
    <path d="M-6 104 L6 104 L11 226 L-11 226 Z" fill="#cfccc2"/>

    <path d="M-36 34 C-36 58 -16 70 0 70 C16 70 36 58 36 34 L36 10 L-36 10 Z" fill="#c98e63"/>

    <g>
      <path d="M-96 30 C-96 -52 -72 -96 -46 -118 L46 -118 C72 -96 96 -52 96 30 L62 30 C58 -6 52 -24 40 -38 L-40 -38 C-52 -24 -58 -6 -62 30 Z" fill="url(#ghutra)"/>
      <ellipse cx="0" cy="-48" rx="58" ry="66" fill="#d69d72"/>
      <path d="M-58 -56 C-58 -104 -32 -124 0 -124 C32 -124 58 -104 58 -56 C58 -62 46 -78 32 -82 C13 -87 -13 -87 -32 -82 C-46 -78 -58 -62 -58 -56 Z" fill="#eceae3"/>
      <path d="M-62 -84 C-40 -102 40 -102 62 -84 C64 -76 64 -72 62 -66 C40 -84 -40 -84 -62 -66 C-64 -72 -64 -76 -62 -84 Z" fill="#23201c"/>
      <path d="M-62 -74 C-40 -92 40 -92 62 -74 C63 -70 63 -68 62 -64 C40 -82 -40 -82 -62 -64 C-63 -68 -63 -70 -62 -74 Z" fill="#3a352f"/>
      <ellipse cx="-22" cy="-52" rx="6.5" ry="7.5" fill="#25201c"/>
      <ellipse cx="22" cy="-52" rx="6.5" ry="7.5" fill="#25201c"/>
      <path d="M-32 -68 C-26 -73 -15 -73 -11 -69" stroke="#4a3a2c" stroke-width="4.5" fill="none" stroke-linecap="round"/>
      <path d="M32 -68 C26 -73 15 -73 11 -69" stroke="#4a3a2c" stroke-width="4.5" fill="none" stroke-linecap="round"/>
      <path d="M0 -48 C3 -39 3 -34 -2 -31" stroke="#b97f56" stroke-width="4" fill="none" stroke-linecap="round"/>
      <path d="M-18 -14 C-9 -5 9 -5 18 -14" stroke="#8a5a38" stroke-width="5" fill="none" stroke-linecap="round"/>
    </g>

    <g transform="translate(118 138)">
      <circle r="40" fill="#e9a03b"/>
      <circle r="40" fill="none" stroke="#ffffff" stroke-width="5" opacity=".35"/>
      <path d="M-13 -5 L-4 8 L15 -13" stroke="#ffffff" stroke-width="7" fill="none" stroke-linecap="round" stroke-linejoin="round"/>
    </g>
  </g>
</svg>
